<svg t="1643950014231" class="icon" viewBox="0 0 1024 1024" version="1.1" xmlns="http://www.w3.org/2000/svg" p-id="1282" width="32" height="32"><path d="M510.2 955.9h-0.2c-36-0.2-145.7-73.5-210.6-122.7-142-107.7-171.6-165.4-171.4-194.9l2.1-403.2c0.1-19 11-36.1 27.7-43.5l1.3-0.5L497.8 67.7c11-4.6 23.4-4.6 34.4 0.2l338.7 127.2c16.6 7.6 27.3 24.8 27.2 43.8L896 642.1c-0.4 64.1-94.9 144.8-174.1 201.1-78 55.4-178.4 112.7-211.7 112.7zM173.8 228.8c-1.9 1.1-3.2 3.7-3.2 6.5l-2.1 403.2c-0.1 21.9 47.2 80 153.3 160.7 90.7 69 172.3 114.8 188.7 116.1 43.1-1.7 344.4-189.9 344.9-273.5l2.1-403.2c0-2.8-1.3-5.4-3.1-6.5L516 105c-0.8-0.4-1.7-0.4-2.6 0l-1.3 0.5-338.3 123.3z" fill="#4F4F4F" p-id="1283"></path><path d="M463.3 638.4c-7.5 0-15-2.8-20.8-8.4l-126-121.8c-8-7.8-8.3-20.6-0.5-28.7 7.8-8 20.6-8.3 28.7-0.5l118.7 114.8 218-206.6c8.1-7.7 21-7.4 28.6 0.8 7.7 8.1 7.4 21-0.8 28.6L483.9 630.2c-5.8 5.5-13.2 8.2-20.6 8.2z" fill="#4F4F4F" p-id="1284"></path></svg>